<svg xmlns="http://www.w3.org/2000/svg" viewBox="0 0 840 410" font-family="Inter, -apple-system, Segoe UI, Roboto, sans-serif"><rect width="840" height="410" fill="#0A0A0A"/><defs><marker id="a" viewBox="0 0 10 10" refX="9" refY="5" markerWidth="7" markerHeight="7" orient="auto-start-reverse"><path d="M0 0L10 5L0 10z" fill="#F5F5F5"/></marker><marker id="am" viewBox="0 0 10 10" refX="9" refY="5" markerWidth="7" markerHeight="7" orient="auto-start-reverse"><path d="M0 0L10 5L0 10z" fill="#A3A3A3"/></marker></defs><rect x="30" y="150" width="150" height="60" rx="10" fill="#161616" stroke="#3F3F3F" stroke-width="1.5"/><text x="105.0" y="178.0" text-anchor="middle" font-size="14" font-weight="600" fill="#F5F5F5">Ваше устройство</text><text x="105.0" y="196.0" text-anchor="middle" font-size="12" fill="#A3A3A3">Incy / Happ</text><rect x="270" y="30" width="300" height="300" rx="14" fill="none" stroke="#3F3F3F" stroke-width="1.5" stroke-dasharray="4 4"/><text x="284" y="52" text-anchor="start" font-size="12" font-weight="400" fill="#A3A3A3">Сеть Alpha — каскад</text><rect x="300" y="150" width="110" height="60" rx="10" fill="#F5F5F5" stroke="#F5F5F5" stroke-width="1.5"/><text x="355.0" y="178.0" text-anchor="middle" font-size="14" font-weight="600" fill="#0A0A0A">Вход</text><text x="355.0" y="196.0" text-anchor="middle" font-size="12" fill="#0A0A0A">балансировщик</text><rect x="450" y="60" width="100" height="46" rx="10" fill="#161616" stroke="#3F3F3F" stroke-width="1.5"/><text x="500.0" y="81.0" text-anchor="middle" font-size="14" font-weight="600" fill="#F5F5F5">Узел 1</text><text x="500.0" y="99.0" text-anchor="middle" font-size="12" fill="#A3A3A3">auto</text><path d="M410 180 L430 180 L430 83 L448 83" fill="none" stroke="#F5F5F5" stroke-width="1.5" marker-end="url(#a)"/><rect x="450" y="125" width="100" height="46" rx="10" fill="#161616" stroke="#3F3F3F" stroke-width="1.5"/><text x="500.0" y="153.0" text-anchor="middle" font-size="14" font-weight="600" fill="#F5F5F5">Узел 2</text><path d="M410 180 L430 180 L430 148 L448 148" fill="none" stroke="#A3A3A3" stroke-width="1.5" marker-end="url(#am)"/><rect x="450" y="190" width="100" height="46" rx="10" fill="#161616" stroke="#3F3F3F" stroke-width="1.5"/><text x="500.0" y="218.0" text-anchor="middle" font-size="14" font-weight="600" fill="#F5F5F5">Узел 3</text><path d="M410 180 L430 180 L430 213 L448 213" fill="none" stroke="#A3A3A3" stroke-width="1.5" marker-end="url(#am)"/><rect x="450" y="255" width="100" height="46" rx="10" fill="#161616" stroke="#3F3F3F" stroke-width="1.5"/><text x="500.0" y="283.0" text-anchor="middle" font-size="14" font-weight="600" fill="#F5F5F5">Узел 4</text><path d="M410 180 L430 180 L430 278 L448 278" fill="none" stroke="#A3A3A3" stroke-width="1.5" marker-end="url(#am)"/><path d="M180 180 L298 180" fill="none" stroke="#F5F5F5" stroke-width="1.5" marker-end="url(#a)"/><text x="239" y="168" text-anchor="middle" font-size="12" fill="#A3A3A3">зарубежный</text><rect x="650" y="110" width="160" height="60" rx="10" fill="#161616" stroke="#3F3F3F" stroke-width="1.5"/><text x="730.0" y="138.0" text-anchor="middle" font-size="14" font-weight="600" fill="#F5F5F5">Зарубежные сайты</text><text x="730.0" y="156.0" text-anchor="middle" font-size="12" fill="#A3A3A3">YouTube без рекламы</text><path d="M550 83 L600 83 L600 140 L648 140" fill="none" stroke="#F5F5F5" stroke-width="1.5" marker-end="url(#a)"/><rect x="650" y="330" width="160" height="60" rx="10" fill="#161616" stroke="#3F3F3F" stroke-width="1.5"/><text x="730.0" y="358.0" text-anchor="middle" font-size="14" font-weight="600" fill="#F5F5F5">Российские сайты</text><text x="730.0" y="376.0" text-anchor="middle" font-size="12" fill="#A3A3A3">напрямую, ваш IP</text><path d="M105 210 L105 360 L648 360" fill="none" stroke="#A3A3A3" stroke-width="1.5" stroke-dasharray="5 4" marker-end="url(#am)"/><text x="380" y="350" text-anchor="middle" font-size="12" fill="#A3A3A3">RU-трафик идёт мимо тоннеля</text></svg>
